REM DIRINDEX 1\5,1\2\6,1\2\7,1\3\8,1\3\9,1\3\10,1\3\11,1\4\12,1\4\13,1\4\14
REM DIRNAME cjc042,folder01,folder02,folder03,folder04,folder05,folder06,folder07,folder08,folder09,folder10,folder11,folder12,folder13
TITLE ""
FILE "4Q_t_016-031.mp3" MP3
  TRACK 01 AUDIO
    TITLE "6:cjc042_1010"
    INDEX 01 00:00:00
  TRACK 02 AUDIO
    TITLE "0:"
    INDEX 01 00:00:54
  TRACK 03 AUDIO
    TITLE "7:cjc042_1011"
    INDEX 01 00:01:22
  TRACK 04 AUDIO
    TITLE "0:"
    INDEX 01 00:02:38
  TRACK 05 AUDIO
    TITLE "6:cjc042_1012"
    INDEX 01 00:03:06
  TRACK 06 AUDIO
    TITLE "0:"
    INDEX 01 00:04:17
  TRACK 07 AUDIO
    TITLE "7:cjc042_1013"
    INDEX 01 00:04:64
  TRACK 08 AUDIO
    TITLE "0:"
    INDEX 01 00:06:39
  TRACK 09 AUDIO
    TITLE "6:cjc042_1014"
    INDEX 01 00:07:09
  TRACK 10 AUDIO
    TITLE "0:"
    INDEX 01 00:08:24
  TRACK 11 AUDIO
    TITLE "7:cjc042_1015"
    INDEX 01 00:08:70
  TRACK 12 AUDIO
    TITLE "0:"
    INDEX 01 00:10:06
  TRACK 13 AUDIO
    TITLE "6:cjc042_1016"
    INDEX 01 00:10:45
  TRACK 14 AUDIO
    TITLE "0:"
    INDEX 01 00:11:60
  TRACK 15 AUDIO
    TITLE "7:cjc042_1017"
    INDEX 01 00:12:28
  TRACK 16 AUDIO
    TITLE "0:"
    INDEX 01 00:17:51
  TRACK 17 AUDIO
    TITLE "6:cjc042_1018"
    INDEX 01 00:18:23
  TRACK 18 AUDIO
    TITLE "0:"
    INDEX 01 00:19:20
  TRACK 19 AUDIO
    TITLE "7:cjc042_1019"
    INDEX 01 00:19:63
  TRACK 20 AUDIO
    TITLE "0:"
    INDEX 01 00:25:09
  TRACK 21 AUDIO
    TITLE "6:cjc042_1020"
    INDEX 01 00:25:52
  TRACK 22 AUDIO
    TITLE "0:"
    INDEX 01 00:26:56
  TRACK 23 AUDIO
    TITLE "7:cjc042_1021"
    INDEX 01 00:27:28
  TRACK 24 AUDIO
    TITLE "0:"
    INDEX 01 00:31:04
  TRACK 25 AUDIO
    TITLE "6:cjc042_1022"
    INDEX 01 00:31:47
  TRACK 26 AUDIO
    TITLE "0:"
    INDEX 01 00:32:52
  TRACK 27 AUDIO
    TITLE "7:cjc042_1023"
    INDEX 01 00:33:22
  TRACK 28 AUDIO
    TITLE "0:"
    INDEX 01 00:34:67
  TRACK 29 AUDIO
    TITLE "6:cjc042_1024"
    INDEX 01 00:35:33
  TRACK 30 AUDIO
    TITLE "0:"
    INDEX 01 00:36:40
  TRACK 31 AUDIO
    TITLE "7:cjc042_1025"
    INDEX 01 00:37:10
  TRACK 32 AUDIO
    TITLE "0:"
    INDEX 01 00:40:03
  TRACK 33 AUDIO
    TITLE "6:cjc042_1026"
    INDEX 01 00:40:48
  TRACK 34 AUDIO
    TITLE "0:"
    INDEX 01 00:41:61
  TRACK 35 AUDIO
    TITLE "7:cjc042_1027"
    INDEX 01 00:42:33
  TRACK 36 AUDIO
    TITLE "0:"
    INDEX 01 00:46:60
  TRACK 37 AUDIO
    TITLE "6:cjc042_1028"
    INDEX 01 00:47:30
  TRACK 38 AUDIO
    TITLE "0:"
    INDEX 01 00:48:48
  TRACK 39 AUDIO
    TITLE "7:cjc042_1029"
    INDEX 01 00:49:18
  TRACK 40 AUDIO
    TITLE "0:"
    INDEX 01 00:50:50
  TRACK 41 AUDIO
    TITLE "6:cjc042_1030"
    INDEX 01 00:51:20
  TRACK 42 AUDIO
    TITLE "0:"
    INDEX 01 00:52:22
  TRACK 43 AUDIO
    TITLE "7:cjc042_1031"
    INDEX 01 00:52:67
  TRACK 44 AUDIO
    TITLE "0:"
    INDEX 01 00:54:29
  TRACK 45 AUDIO
    TITLE "6:cjc042_1032"
    INDEX 01 00:54:74
  TRACK 46 AUDIO
    TITLE "0:"
    INDEX 01 00:56:14
  TRACK 47 AUDIO
    TITLE "7:cjc042_1033"
    INDEX 01 00:56:57
  TRACK 48 AUDIO
    TITLE "0:"
    INDEX 01 01:03:55
  TRACK 49 AUDIO
    TITLE "6:cjc042_1034"
    INDEX 01 01:04:29
  TRACK 50 AUDIO
    TITLE "0:"
    INDEX 01 01:05:46
  TRACK 51 AUDIO
    TITLE "7:cjc042_1035"
    INDEX 01 01:06:18
  TRACK 52 AUDIO
    TITLE "0:"
    INDEX 01 01:08:56
  TRACK 53 AUDIO
    TITLE "6:cjc042_1036"
    INDEX 01 01:09:28
  TRACK 54 AUDIO
    TITLE "0:"
    INDEX 01 01:10:39
  TRACK 55 AUDIO
    TITLE "7:cjc042_1037"
    INDEX 01 01:11:09
  TRACK 56 AUDIO
    TITLE "0:"
    INDEX 01 01:13:24
  TRACK 57 AUDIO
    TITLE "6:cjc042_1038"
    INDEX 01 01:13:69
  TRACK 58 AUDIO
    TITLE "0:"
    INDEX 01 01:15:03
  TRACK 59 AUDIO
    TITLE "7:cjc042_1039"
    INDEX 01 01:15:50
  TRACK 60 AUDIO
    TITLE "0:"
    INDEX 01 01:16:73
  TRACK 61 AUDIO
    TITLE "6:cjc042_1040"
    INDEX 01 01:17:45
  TRACK 62 AUDIO
    TITLE "0:"
    INDEX 01 01:18:60
  TRACK 63 AUDIO
    TITLE "7:cjc042_1041"
    INDEX 01 01:19:32
  TRACK 64 AUDIO
    TITLE "0:"
    INDEX 01 01:21:39
